<svg id="Layer_1" data-name="Layer 1" xmlns="http://www.w3.org/2000/svg" viewBox="0 0 693.48 445.49"><title>logo</title><path d="M144.33,138.5H117.27V31.76h-0.75L84.38,138.5H58.26l-31-106.93H26.5V138.5H0V2.44H43.22L72,101.86h0.75L101.29,2.44h43V138.5Z" style="fill:#231f20"/><path d="M249.76,85.32V2.44H278.7v87c0,36.08-20.86,51.3-54.87,51.3-37.59,0-53.56-16.54-53.56-52.06V2.44H199.4V84.76c0,21.24,5.45,31.76,25.56,31.76C244.13,116.52,249.76,107.5,249.76,85.32Z" style="fill:#231f20"/><path d="M327.19,36.83c0,28.38,70.66,10.9,70.66,60.89,0,30.82-25,43-52.06,43-24.43,0-50.18-7.89-52.62-43.22l26.31-3.95c2.25,13.15,7.14,24.24,27.06,24.24,12,0,22.55-4.13,22.55-16.73,0-28.38-70.85-8.64-70.85-60.14,0-26.5,22.18-41,49.61-41,24.24,0,46.42,7.52,48.49,39.84l-26.5,3c-1.13-12.78-6.39-20.48-22.36-20.48C333.58,22.36,327.19,28.19,327.19,36.83Z" style="fill:#231f20"/><path d="M446,138.5H417V2.44H446V138.5Z" style="fill:#231f20"/><path d="M467,72c0-43.22,22.93-72,65.59-72,30.44,0,52.06,14.66,53.56,48.86l-26.5,2.25c-1.69-19.36-10-27.25-27.44-27.25-22.17,0-35.33,14.28-35.33,46.61,0,33.45,11.84,46.42,33.26,46.42,19.54,0,26.31-10.15,29.5-24.43L585.79,97c-4.32,32.51-31.57,43.79-56,43.79C484.68,140.76,467,114.07,467,72Z" style="fill:#231f20"/><path d="M645.74,115.76V88.89h-25V66.53h25V40.4H668.3V66.53h25.18V88.89H668.3v26.87H645.74Z" style="fill:#231f20"/><path d="M311.78,155.94L359.89,292H328.13l-11.28-33.08H271.56L261,292H231.16L275.7,155.94h36.08Zm-17.85,27.25h-0.75l-16.73,52.62h34.39Z" style="fill:#231f20"/><path d="M481.11,292h-31.2L423,240.32h-18.6V292H375.68V155.94h53c33.83,0,45.1,18.23,45.1,38.34s-9.58,32.51-23.49,38.9Zm-61.83-74.42c13.53,0,24.62-5.07,24.62-20.48,0-13-8.08-17.85-23.49-17.85h-16v38.34h14.85Z" style="fill:#231f20"/><path d="M520.2,292V180.37h-40V155.94H589v24.43H549.33V292H520.2Z" style="fill:#231f20"/><path d="M620.94,229.32V206.77h72.54v22.55H620.94Zm0,35.52V242.29h72.54v22.55H620.94Z" style="fill:#231f20"/><path d="M368.73,421.06H427v24.43h-87.2V309.43h28.94V421.06Z" style="fill:#231f20"/><path d="M475.48,445.49H446.54V309.43h28.94V445.49Z" style="fill:#231f20"/><path d="M532.23,445.49H503.29V309.43H589v24.24H532.23v34.58h52.24v23.87H532.23v53.37Z" style="fill:#231f20"/><path d="M636.16,421.06h57.32v24.43l-86.26,0V309.43h86.26v24.24H636.16v31.95H690.1V389.3H636.16v31.76Z" style="fill:#231f20"/></svg>